solid controlVolume_SL
   facet normal 0.000000e+00 1.000000e+00 0.000000e+00
      outer loop
         vertex 6.000000e-03 1.043812e-03 3.500000e-02
         vertex 6.000000e-03 1.043812e-03 -1.500000e-02
         vertex -9.149804e-03 1.043812e-03 3.500000e-02
      endloop
   endfacet
   facet normal 0.000000e+00 1.000000e+00 0.000000e+00
      outer loop
         vertex -9.149804e-03 1.043812e-03 3.500000e-02
         vertex 6.000000e-03 1.043812e-03 -1.500000e-02
         vertex -9.149804e-03 1.043812e-03 -1.500000e-02
      endloop
   endfacet
   facet normal 1.000000e+00 -0.000000e+00 0.000000e+00
      outer loop
         vertex 6.000000e-03 -1.685577e-02 3.500000e-02
         vertex 6.000000e-03 -1.685577e-02 -1.500000e-02
         vertex 6.000000e-03 1.043812e-03 3.500000e-02
      endloop
   endfacet
   facet normal 1.000000e+00 0.000000e+00 0.000000e+00
      outer loop
         vertex 6.000000e-03 1.043812e-03 3.500000e-02
         vertex 6.000000e-03 -1.685577e-02 -1.500000e-02
         vertex 6.000000e-03 1.043812e-03 -1.500000e-02
      endloop
   endfacet
   facet normal 0.000000e+00 -1.000000e+00 0.000000e+00
      outer loop
         vertex -9.149804e-03 -1.685577e-02 3.500000e-02
         vertex -9.149804e-03 -1.685577e-02 -1.500000e-02
         vertex 6.000000e-03 -1.685577e-02 3.500000e-02
      endloop
   endfacet
   facet normal 0.000000e+00 -1.000000e+00 -0.000000e+00
      outer loop
         vertex 6.000000e-03 -1.685577e-02 3.500000e-02
         vertex -9.149804e-03 -1.685577e-02 -1.500000e-02
         vertex 6.000000e-03 -1.685577e-02 -1.500000e-02
      endloop
   endfacet
   facet normal -1.000000e+00 -0.000000e+00 -0.000000e+00
      outer loop
         vertex -9.149804e-03 1.043812e-03 3.500000e-02
         vertex -9.149804e-03 1.043812e-03 -1.500000e-02
         vertex -9.149804e-03 -1.685577e-02 3.500000e-02
      endloop
   endfacet
   facet normal -1.000000e+00 0.000000e+00 0.000000e+00
      outer loop
         vertex -9.149804e-03 -1.685577e-02 3.500000e-02
         vertex -9.149804e-03 1.043812e-03 -1.500000e-02
         vertex -9.149804e-03 -1.685577e-02 -1.500000e-02
      endloop
   endfacet
   facet normal 0.000000e+00 0.000000e+00 -1.000000e+00
      outer loop
         vertex -9.149804e-03 -1.685577e-02 -1.500000e-02
         vertex -9.149804e-03 1.043812e-03 -1.500000e-02
         vertex 6.000000e-03 -1.685577e-02 -1.500000e-02
      endloop
   endfacet
   facet normal 0.000000e+00 0.000000e+00 -1.000000e+00
      outer loop
         vertex 6.000000e-03 -1.685577e-02 -1.500000e-02
         vertex -9.149804e-03 1.043812e-03 -1.500000e-02
         vertex 6.000000e-03 1.043812e-03 -1.500000e-02
      endloop
   endfacet
   facet normal -0.000000e+00 0.000000e+00 1.000000e+00
      outer loop
         vertex -9.149804e-03 1.043812e-03 3.500000e-02
         vertex -9.149804e-03 -1.685577e-02 3.500000e-02
         vertex 6.000000e-03 1.043812e-03 3.500000e-02
      endloop
   endfacet
   facet normal 0.000000e+00 0.000000e+00 1.000000e+00
      outer loop
         vertex 6.000000e-03 1.043812e-03 3.500000e-02
         vertex -9.149804e-03 -1.685577e-02 3.500000e-02
         vertex 6.000000e-03 -1.685577e-02 3.500000e-02
      endloop
   endfacet
endsolid