solid controlVolume_FR
   facet normal 0.000000e+00 1.000000e+00 0.000000e+00
      outer loop
         vertex 2.693051e-02 4.478103e-01 1.750000e-01
         vertex 2.693051e-02 4.478103e-01 -1.500000e-02
         vertex 0.000000e+00 4.478103e-01 1.750000e-01
      endloop
   endfacet
   facet normal 0.000000e+00 1.000000e+00 0.000000e+00
      outer loop
         vertex 0.000000e+00 4.478103e-01 1.750000e-01
         vertex 2.693051e-02 4.478103e-01 -1.500000e-02
         vertex 0.000000e+00 4.478103e-01 -1.500000e-02
      endloop
   endfacet
   facet normal 1.000000e+00 -0.000000e+00 0.000000e+00
      outer loop
         vertex 2.693051e-02 -1.685577e-02 1.750000e-01
         vertex 2.693051e-02 -1.685577e-02 -1.500000e-02
         vertex 2.693051e-02 4.478103e-01 1.750000e-01
      endloop
   endfacet
   facet normal 1.000000e+00 0.000000e+00 0.000000e+00
      outer loop
         vertex 2.693051e-02 4.478103e-01 1.750000e-01
         vertex 2.693051e-02 -1.685577e-02 -1.500000e-02
         vertex 2.693051e-02 4.478103e-01 -1.500000e-02
      endloop
   endfacet
   facet normal 0.000000e+00 -1.000000e+00 0.000000e+00
      outer loop
         vertex 6.000000e-03 -1.685577e-02 1.750000e-01
         vertex 6.000000e-03 -1.685577e-02 -1.500000e-02
         vertex 2.693051e-02 -1.685577e-02 1.750000e-01
      endloop
   endfacet
   facet normal 0.000000e+00 -1.000000e+00 -0.000000e+00
      outer loop
         vertex 2.693051e-02 -1.685577e-02 1.750000e-01
         vertex 6.000000e-03 -1.685577e-02 -1.500000e-02
         vertex 2.693051e-02 -1.685577e-02 -1.500000e-02
      endloop
   endfacet
   facet normal -1.000000e+00 -0.000000e+00 -0.000000e+00
      outer loop
         vertex 6.000000e-03 1.078939e-03 1.750000e-01
         vertex 6.000000e-03 1.078939e-03 -1.500000e-02
         vertex 6.000000e-03 -1.685577e-02 1.750000e-01
      endloop
   endfacet
   facet normal -1.000000e+00 0.000000e+00 0.000000e+00
      outer loop
         vertex 6.000000e-03 -1.685577e-02 1.750000e-01
         vertex 6.000000e-03 1.078939e-03 -1.500000e-02
         vertex 6.000000e-03 -1.685577e-02 -1.500000e-02
      endloop
   endfacet
   facet normal 0.000000e+00 0.000000e+00 -1.000000e+00
      outer loop
         vertex 2.693051e-02 -1.685577e-02 -1.500000e-02
         vertex 6.000000e-03 -1.685577e-02 -1.500000e-02
         vertex 6.000000e-03 1.078939e-03 -1.500000e-02
      endloop
   endfacet
   facet normal 0.000000e+00 0.000000e+00 -1.000000e+00
      outer loop
         vertex 0.000000e+00 1.078939e-03 -1.500000e-02
         vertex 0.000000e+00 4.478103e-01 -1.500000e-02
         vertex 6.000000e-03 1.078939e-03 -1.500000e-02
      endloop
   endfacet
   facet normal 0.000000e+00 0.000000e+00 -1.000000e+00
      outer loop
         vertex 6.000000e-03 1.078939e-03 -1.500000e-02
         vertex 0.000000e+00 4.478103e-01 -1.500000e-02
         vertex 2.693051e-02 4.478103e-01 -1.500000e-02
      endloop
   endfacet
   facet normal 0.000000e+00 0.000000e+00 -1.000000e+00
      outer loop
         vertex 6.000000e-03 1.078939e-03 -1.500000e-02
         vertex 2.693051e-02 4.478103e-01 -1.500000e-02
         vertex 2.693051e-02 -1.685577e-02 -1.500000e-02
      endloop
   endfacet
   facet normal 0.000000e+00 0.000000e+00 1.000000e+00
      outer loop
         vertex 6.000000e-03 -1.685577e-02 1.750000e-01
         vertex 2.693051e-02 -1.685577e-02 1.750000e-01
         vertex 6.000000e-03 1.078939e-03 1.750000e-01
      endloop
   endfacet
   facet normal -0.000000e+00 0.000000e+00 1.000000e+00
      outer loop
         vertex 6.000000e-03 1.078939e-03 1.750000e-01
         vertex 2.693051e-02 -1.685577e-02 1.750000e-01
         vertex 2.693051e-02 4.478103e-01 1.750000e-01
      endloop
   endfacet
   facet normal 0.000000e+00 -0.000000e+00 1.000000e+00
      outer loop
         vertex 6.000000e-03 1.078939e-03 1.750000e-01
         vertex 2.693051e-02 4.478103e-01 1.750000e-01
         vertex 0.000000e+00 1.078939e-03 1.750000e-01
      endloop
   endfacet
   facet normal 0.000000e+00 0.000000e+00 1.000000e+00
      outer loop
         vertex 0.000000e+00 1.078939e-03 1.750000e-01
         vertex 2.693051e-02 4.478103e-01 1.750000e-01
         vertex 0.000000e+00 4.478103e-01 1.750000e-01
      endloop
   endfacet
   facet normal -1.000000e+00 -1.156482e-16 -0.000000e+00
      outer loop
         vertex 2.300487e-17 1.078939e-03 1.750000e-01
         vertex -2.865882e-17 4.478103e-01 1.750000e-01
         vertex 2.300487e-17 1.078939e-03 -1.500000e-02
      endloop
   endfacet
   facet normal -1.000000e+00 -1.156482e-16 0.000000e+00
      outer loop
         vertex 2.300487e-17 1.078939e-03 -1.500000e-02
         vertex -2.865882e-17 4.478103e-01 1.750000e-01
         vertex -2.865882e-17 4.478103e-01 -1.500000e-02
      endloop
   endfacet
   facet normal 0.000000e+00 -1.000000e+00 0.000000e+00
      outer loop
         vertex 6.000000e-03 1.078939e-03 -1.500000e-02
         vertex 6.000000e-03 1.078939e-03 1.750000e-01
         vertex 0.000000e+00 1.078939e-03 -1.500000e-02
      endloop
   endfacet
   facet normal 0.000000e+00 -1.000000e+00 0.000000e+00
      outer loop
         vertex 0.000000e+00 1.078939e-03 -1.500000e-02
         vertex 6.000000e-03 1.078939e-03 1.750000e-01
         vertex 0.000000e+00 1.078939e-03 1.750000e-01
      endloop
   endfacet
endsolid