solid inlet_air
   facet normal -0.000000e+00 -1.000000e+00 -0.000000e+00
      outer loop
         vertex -1.050000e-02 -1.400000e-02 2.500000e-02
         vertex -4.500000e-02 -1.400000e-02 2.500000e-02
         vertex -1.050000e-02 -1.400000e-02 0.000000e+00
      endloop
   endfacet
   facet normal 0.000000e+00 -1.000000e+00 0.000000e+00
      outer loop
         vertex -1.050000e-02 -1.400000e-02 0.000000e+00
         vertex -4.500000e-02 -1.400000e-02 2.500000e-02
         vertex -4.500000e-02 -1.400000e-02 0.000000e+00
      endloop
   endfacet
endsolid