solid inlet_SL
   facet normal 4.473499e-01 8.943590e-01 -0.000000e+00
      outer loop
         vertex -3.302776e-03 -9.000000e-03 0.000000e+00
         vertex -3.302776e-03 -9.000000e-03 2.500000e-02
         vertex -2.819320e-03 -9.241819e-03 0.000000e+00
      endloop
   endfacet
   facet normal 4.473499e-01 8.943590e-01 -0.000000e+00
      outer loop
         vertex -2.819320e-03 -9.241819e-03 0.000000e+00
         vertex -3.302776e-03 -9.000000e-03 2.500000e-02
         vertex -2.819320e-03 -9.241819e-03 2.500000e-02
      endloop
   endfacet
   facet normal 3.042970e-01 9.525772e-01 -0.000000e+00
      outer loop
         vertex -2.819320e-03 -9.241819e-03 0.000000e+00
         vertex -2.819320e-03 -9.241819e-03 2.500000e-02
         vertex -2.304394e-03 -9.406311e-03 0.000000e+00
      endloop
   endfacet
   facet normal 3.042970e-01 9.525772e-01 -0.000000e+00
      outer loop
         vertex -2.304394e-03 -9.406311e-03 0.000000e+00
         vertex -2.819320e-03 -9.241819e-03 2.500000e-02
         vertex -2.304394e-03 -9.406311e-03 2.500000e-02
      endloop
   endfacet
   facet normal 1.539843e-01 9.880733e-01 -0.000000e+00
      outer loop
         vertex -2.304394e-03 -9.406311e-03 0.000000e+00
         vertex -2.304394e-03 -9.406311e-03 2.500000e-02
         vertex -1.770280e-03 -9.489548e-03 0.000000e+00
      endloop
   endfacet
   facet normal 1.539843e-01 9.880733e-01 -0.000000e+00
      outer loop
         vertex -1.770280e-03 -9.489548e-03 0.000000e+00
         vertex -2.304394e-03 -9.406311e-03 2.500000e-02
         vertex -1.770280e-03 -9.489548e-03 2.500000e-02
      endloop
   endfacet
   facet normal 0.000000e+00 1.000000e+00 0.000000e+00
      outer loop
         vertex -1.770280e-03 -9.489548e-03 0.000000e+00
         vertex -1.770280e-03 -9.489548e-03 2.500000e-02
         vertex -1.229720e-03 -9.489548e-03 0.000000e+00
      endloop
   endfacet
   facet normal 0.000000e+00 1.000000e+00 -0.000000e+00
      outer loop
         vertex -1.229720e-03 -9.489548e-03 0.000000e+00
         vertex -1.770280e-03 -9.489548e-03 2.500000e-02
         vertex -1.229720e-03 -9.489548e-03 2.500000e-02
      endloop
   endfacet
   facet normal -1.539843e-01 9.880733e-01 0.000000e+00
      outer loop
         vertex -1.229720e-03 -9.489548e-03 0.000000e+00
         vertex -1.229720e-03 -9.489548e-03 2.500000e-02
         vertex -6.956059e-04 -9.406311e-03 0.000000e+00
      endloop
   endfacet
   facet normal -1.539843e-01 9.880733e-01 0.000000e+00
      outer loop
         vertex -6.956059e-04 -9.406311e-03 0.000000e+00
         vertex -1.229720e-03 -9.489548e-03 2.500000e-02
         vertex -6.956059e-04 -9.406311e-03 2.500000e-02
      endloop
   endfacet
   facet normal -3.042971e-01 9.525772e-01 0.000000e+00
      outer loop
         vertex -6.956059e-04 -9.406311e-03 0.000000e+00
         vertex -6.956059e-04 -9.406311e-03 2.500000e-02
         vertex -1.806799e-04 -9.241819e-03 0.000000e+00
      endloop
   endfacet
   facet normal -3.042971e-01 9.525772e-01 0.000000e+00
      outer loop
         vertex -1.806799e-04 -9.241819e-03 0.000000e+00
         vertex -6.956059e-04 -9.406311e-03 2.500000e-02
         vertex -1.806799e-04 -9.241819e-03 2.500000e-02
      endloop
   endfacet
   facet normal -4.473497e-01 8.943591e-01 0.000000e+00
      outer loop
         vertex -1.806799e-04 -9.241819e-03 0.000000e+00
         vertex -1.806799e-04 -9.241819e-03 2.500000e-02
         vertex 3.027756e-04 -9.000000e-03 0.000000e+00
      endloop
   endfacet
   facet normal -4.473497e-01 8.943591e-01 0.000000e+00
      outer loop
         vertex 3.027756e-04 -9.000000e-03 0.000000e+00
         vertex -1.806799e-04 -9.241819e-03 2.500000e-02
         vertex 3.027756e-04 -9.000000e-03 2.500000e-02
      endloop
   endfacet
endsolid inlet_SL