solid outlet_FR
   facet normal 0.000000e+00 1.000000e+00 0.000000e+00
      outer loop
         vertex 2.500000e-02 4.400000e-01 2.500000e-02
         vertex 2.500000e-02 4.400000e-01 0.000000e+00
         vertex 0.000000e+00 4.400000e-01 2.500000e-02
      endloop
   endfacet
   facet normal 0.000000e+00 1.000000e+00 0.000000e+00
      outer loop
         vertex 0.000000e+00 4.400000e-01 2.500000e-02
         vertex 2.500000e-02 4.400000e-01 0.000000e+00
         vertex 0.000000e+00 4.400000e-01 0.000000e+00
      endloop
   endfacet
endsolid outlet_FR